<svg width="56" height="55" viewBox="0 0 56 55" fill="none" xmlns="http://www.w3.org/2000/svg">
<path d="M1.33325 27.5L27.0459 40.3563C27.3957 40.5312 27.5706 40.6187 27.7541 40.6531C27.9165 40.6836 28.0833 40.6836 28.2458 40.6531C28.4292 40.6187 28.6042 40.5312 28.954 40.3563L54.6666 27.5M1.33325 40.8333L27.0459 53.6896C27.3957 53.8646 27.5706 53.952 27.7541 53.9864C27.9165 54.0169 28.0833 54.0169 28.2458 53.9864C28.4292 53.952 28.6042 53.8646 28.954 53.6896L54.6666 40.8333M1.33325 14.1667L27.0459 1.31037C27.3957 1.13546 27.5706 1.04801 27.7541 1.01359C27.9165 0.983101 28.0833 0.983101 28.2458 1.01359C28.4292 1.04801 28.6042 1.13546 28.954 1.31037L54.6666 14.1667L28.954 27.023C28.6042 27.1979 28.4292 27.2853 28.2458 27.3198C28.0833 27.3503 27.9165 27.3503 27.7541 27.3198C27.5706 27.2853 27.3957 27.1979 27.0459 27.023L1.33325 14.1667Z" stroke="white" stroke-width="2" stroke-linecap="round" stroke-linejoin="round"/>
</svg>
